<?xml version="1.0" encoding="utf-8"?>
<!-- Generator: Adobe Illustrator 25.1.0, SVG Export Plug-In . SVG Version: 6.00 Build 0)  -->
<svg version="1.1" id="Layer_1" xmlns="http://www.w3.org/2000/svg" xmlns:xlink="http://www.w3.org/1999/xlink" x="0px" y="0px"
	 viewBox="0 0 122 85" style="enable-background:new 0 0 122 85;" xml:space="preserve">
<style type="text/css">
	.st0{fill:#FFFFFF;}
	.st1{fill:#0E4B8D;}
</style>
<g>
	<path class="st0" d="M44.5,43.3c0.6-0.2,1-0.6,1.4-1.2c0.3-0.5,0.5-1.1,0.5-1.8c0-1.1-0.4-2.1-1.2-2.8c-0.8-0.7-1.9-1-3-1h-0.8
		v-1.2c0-0.2,0-0.4-0.2-0.6c-0.2-0.1-0.4-0.2-0.6-0.2h-0.9c-0.1,0-0.1,0-0.2,0c-0.4,0-0.6,0.4-0.6,0.8v1.2h-2.9
		c-0.2,0-0.4,0-0.6,0.2c-0.1,0.2-0.2,0.4-0.2,0.6v12.4c0,0.2,0,0.4,0.2,0.6c0.2,0.1,0.4,0.2,0.6,0.2H39v1.2c0,0.2,0,0.4,0.2,0.6
		c0.2,0.1,0.4,0.2,0.6,0.2h0.7c0.3,0,0.5,0,0.7-0.2c0.2-0.1,0.2-0.4,0.2-0.6v-1.2h1c1.2,0.1,2.3-0.3,3.2-1.1
		c0.8-0.8,1.2-1.8,1.2-2.9C46.9,45,46,43.7,44.5,43.3z M38,38.6h3.6c0.6,0,1.1,0.1,1.6,0.4c0.7,0.8,0.7,2,0,2.9
		c-0.4,0.4-1,0.5-1.5,0.5H38V38.6z M44.2,46.9C44,48,43.1,48.7,42,48.6h-4v-4.2h3.8c0.7,0,1.3,0.1,1.8,0.5c0.5,0.4,0.7,1,0.6,1.6
		C44.2,46.6,44.2,46.8,44.2,46.9z"/>
	<path class="st0" d="M58,33.5c0-0.8,0.7-1.5,1.5-1.5H73c0.8,0,1.5,0.7,1.5,1.5S73.9,35,73,35H59.5C58.7,35,58,34.3,58,33.5z"/>
	<path class="st0" d="M94.1,48c0,0.8-0.7,1.5-1.5,1.5h-33c-0.8,0-1.5-0.7-1.5-1.5c0-0.8,0.7-1.5,1.5-1.5h33
		C93.4,46.5,94.1,47.2,94.1,48z"/>
	<path class="st0" d="M94.1,40.7c0,0.8-0.7,1.5-1.5,1.5h-33c-0.8,0-1.5-0.7-1.5-1.5c0-0.8,0.7-1.5,1.5-1.5h33
		C93.4,39.2,94.1,39.9,94.1,40.7z"/>
	<path class="st1" d="M107.1,13.3H26.4C24.6,10.7,21.7,9,18.2,9c-5.4,0-9.8,4.4-9.8,9.8v48c0,1.9,0.6,3.8,1.5,5.3l0,0
		c1.6,3,4.8,5,8.4,5h86.8c4.6,0,8.3-3.6,8.3-8.2c0,0,0.1-1.6,0.1-2v-47C113.6,16.2,110.7,13.3,107.1,13.3z M11.5,18.8
		c0-3.7,3-6.7,6.7-6.7v0c0,0,0,0,0,0c1.6,0,3.1,0.6,4.2,1.5c0.5,0.4,0.9,0.8,1.2,1.3c0.3,0.4,0.6,0.9,0.8,1.5
		c0.3,0.8,0.4,1.6,0.4,2.4v41.8c-1.2-1.1-2.7-1.9-4.4-2.3c-0.5-0.1-1-0.2-1.5-0.2c-0.2,0-0.4,0-0.7,0h-0.1c-0.3,0-0.5,0-0.8,0
		c-2.4,0.2-4.5,1.2-6.1,2.9V18.8z M110.1,70.8c-0.4,1-1.2,1.9-2.2,2.4c-0.8,0.5-1.7,0.7-2.7,0.7H18.4c-0.2,0-0.5,0-0.7,0
		c-3.6-0.2-6.3-3.3-6.1-6.9c0-0.1,0-0.2,0-0.3c0.3-3.2,2.9-5.6,6.1-5.8c0.3,0,0.5,0,0.8,0c0.2,0,0.5,0,0.7,0c0.5,0,1,0.2,1.5,0.3
		c2.2,0.8,3.9,2.6,4.4,4.9c0.1,0.4,0.1,0.8,0.1,1.2v1.7h85.4C110.4,69.8,110.3,70.3,110.1,70.8z M110.6,66.2H28V18.8
		c0-0.8-0.1-1.7-0.3-2.4h79.4c1.9,0,3.5,1.6,3.5,3.5V66.2z"/>
	<g id="Group_147">
		<path id="Path_87" class="st1" d="M44.5,43.3c0.6-0.2,1-0.6,1.4-1.2c0.3-0.5,0.5-1.1,0.5-1.8c0-1.1-0.4-2.1-1.2-2.8
			c-0.8-0.7-1.9-1-3-1h-0.8v-1.2c0-0.2,0-0.4-0.2-0.6c-0.2-0.1-0.4-0.2-0.6-0.2h-0.9c-0.1,0-0.1,0-0.2,0c-0.4,0-0.6,0.4-0.6,0.8v1.2
			h-2.9c-0.2,0-0.4,0-0.6,0.2c-0.1,0.2-0.2,0.4-0.2,0.6v12.4c0,0.2,0,0.4,0.2,0.6c0.2,0.1,0.4,0.2,0.6,0.2H39v1.2
			c0,0.2,0,0.4,0.2,0.6c0.2,0.1,0.4,0.2,0.6,0.2h0.7c0.3,0,0.5,0,0.7-0.2c0.2-0.1,0.2-0.4,0.2-0.6v-1.2h1c1.2,0.1,2.3-0.3,3.2-1.1
			c0.8-0.8,1.2-1.8,1.2-2.9C46.9,45,46,43.7,44.5,43.3z M38,38.6h3.6c0.6,0,1.1,0.1,1.6,0.4c0.7,0.8,0.7,2,0,2.9
			c-0.4,0.4-1,0.5-1.5,0.5H38V38.6z M44.2,46.9C44,48,43.1,48.7,42,48.6h-4v-4.2h3.8c0.7,0,1.3,0.1,1.8,0.5c0.5,0.4,0.7,1,0.6,1.6
			C44.2,46.6,44.2,46.8,44.2,46.9z"/>
	</g>
	<path class="st1" d="M74.5,33.5c0,0.8-0.7,1.5-1.5,1.5H59.5c-0.8,0-1.5-0.7-1.5-1.5s0.7-1.5,1.5-1.5H73
		C73.9,32,74.5,32.7,74.5,33.5z"/>
	<path class="st1" d="M94.1,33.2c0,0.8-0.7,1.5-1.5,1.5H79.1c-0.8,0-1.5-0.7-1.5-1.5s0.7-1.5,1.5-1.5h13.5
		C93.4,31.7,94.1,32.3,94.1,33.2z"/>
	<path class="st1" d="M94.1,40.7c0,0.8-0.7,1.5-1.5,1.5h-33c-0.8,0-1.5-0.7-1.5-1.5c0-0.8,0.7-1.5,1.5-1.5h33
		C93.4,39.2,94.1,39.9,94.1,40.7z"/>
	<path class="st1" d="M94.1,48c0,0.8-0.7,1.5-1.5,1.5h-33c-0.8,0-1.5-0.7-1.5-1.5c0-0.8,0.7-1.5,1.5-1.5h33
		C93.4,46.5,94.1,47.2,94.1,48z"/>
	<path class="st1" d="M74.5,55.5c0,0.8-0.7,1.5-1.5,1.5H59.6c-0.8,0-1.5-0.7-1.5-1.5c0-0.8,0.7-1.5,1.5-1.5H73
		C73.9,54,74.5,54.6,74.5,55.5z"/>
	<path class="st1" d="M85.6,55.5c0,0.8-0.7,1.5-1.5,1.5h-2.7c-0.8,0-1.5-0.7-1.5-1.5c0-0.8,0.7-1.5,1.5-1.5h2.7
		C84.9,54,85.6,54.6,85.6,55.5z"/>
</g>
</svg>
