<?xml version="1.0" encoding="utf-8"?>
<!-- Generator: Adobe Illustrator 25.1.0, SVG Export Plug-In . SVG Version: 6.00 Build 0)  -->
<svg version="1.1" id="Layer_1" xmlns="http://www.w3.org/2000/svg" xmlns:xlink="http://www.w3.org/1999/xlink" x="0px" y="0px"
	 viewBox="-30 -1 120 125" style="enable-background:new 0 0 88 88;" xml:space="preserve">
<style type="text/css">
	.st0{fill:none;stroke:#FFFFFF;stroke-width:4;stroke-miterlimit:10;}
</style>
<g id="Layer_3">
</g>
<g>
	<path class="st0" d="M53.8,13.9c0,3.4-2.8,6.2-6.2,6.2c-3.4,0-6.2-2.8-6.2-6.2c0-3.4,2.8-6.2,6.2-6.2C51,7.6,53.8,10.4,53.8,13.9z"
		/>
	<path class="st0" d="M56.9,49.8v10.4c0,0.4-0.3,0.8-0.8,0.8H42.9c-0.3,0-0.5,0.1-0.6,0.3l-4.1,5.9c-0.2,0.2-0.2,0.5-0.1,0.8
		l5.5,11.1c0.3,0.5-0.1,1.1-0.7,1.1h-3.3c-0.2,0-0.4-0.1-0.6-0.2l-6.8-6.8c-0.2-0.2-0.4-0.2-0.6-0.2H28c-0.4,0-0.8-0.4-0.8-0.8v-4.1
		c0-0.4-0.4-0.8-0.8-0.8h-4c-0.4,0-0.8,0.4-0.8,0.8v15.2c0,0.2-0.1,0.3-0.2,0.5L14.6,93c-0.1,0.2-0.2,0.4-0.2,0.5l0.8,7.7
		c0,0.1,0.1,0.3,0.2,0.4l6.3,8.2c0.1,0.1,0.1,0.2,0.2,0.2l11.4,6.8c0.2,0.1,0.4,0.4,0.4,0.7v2.8c0,0.4-0.4,0.8-0.8,0.8h-5.7
		c-0.2,0-0.4-0.1-0.6-0.2l-2.5-2.5c-0.1-0.2-0.3-0.2-0.6-0.2h-4.7c-0.2,0-0.4-0.1-0.6-0.2l-13-13c-0.2-0.2-0.2-0.4-0.2-0.6V92.1
		c0-0.2,0.1-0.4,0.2-0.6l9.9-9.9c0.1-0.1,0.2-0.3,0.2-0.6v-4.8c0-0.2-0.1-0.3-0.2-0.5l-1.5-2c-0.1-0.1-0.2-0.3-0.2-0.5v-4.8
		c0-0.2-0.1-0.4-0.2-0.6l-7.3-7.3c-0.1-0.1-0.2-0.3-0.2-0.6V57c0-0.2,0.1-0.4,0.2-0.6l3.6-3.6c0.1-0.1,0.2-0.3,0.2-0.6v-6.9
		c0-0.2-0.1-0.4-0.2-0.6l-8.5-8.5C1.1,36.2,1,36,1,35.8v-7.1c0-0.2,0-0.3,0.2-0.5L5.1,23c0.2-0.2,0.4-0.3,0.6-0.3h5.9
		c0.2,0,0.4-0.1,0.5-0.2l4.2-3.4c0.1-0.1,0.3-0.2,0.5-0.2h6.2c0.4,0,0.8,0.4,0.8,0.8v2.9c0,0.4,0.3,0.8,0.8,0.8h3
		c0.4,0,0.8,0.3,0.8,0.8v13.2c0,0.7,0.8,1,1.3,0.6l1.5-1.5c0.2-0.1,0.4-0.2,0.6-0.2h4c0.2,0,0.4-0.1,0.6-0.2l3.2-3.1
		c0.1-0.1,0.3-0.2,0.6-0.2h3.5c0.2,0,0.4,0.1,0.5,0.2c0,0,0,0,0,0l1.7,2.9c0.8,1.4,2.8,1.4,3.6,0l2.6,2.6c0.2,0.2,0.2,0.3,0.2,0.6v6
		c0,0.2,0.1,0.4,0.3,0.6l4.2,3.7C56.8,49.3,56.9,49.5,56.9,49.8z"/>
	<path class="st0" d="M47.9,1c-7.2-0.2-13.1,5.6-13.1,12.8c0,2,0.4,3.8,1.2,5.5l1.2,2l6.9,11.6l1.7,2.9c0.8,1.4,2.8,1.4,3.6,0
		c0,0,0,0,0,0l8.5-14.4l1.3-2.1c0.9-1.9,1.3-4,1.2-6.2C59.9,6.4,54.4,1.2,47.9,1z"/>
</g>
</svg>
