<?xml version="1.0" encoding="utf-8"?>
<!-- Generator: Adobe Illustrator 25.1.0, SVG Export Plug-In . SVG Version: 6.00 Build 0)  -->
<svg version="1.1" id="Layer_1" xmlns="http://www.w3.org/2000/svg" xmlns:xlink="http://www.w3.org/1999/xlink" x="0px" y="0px"
	 viewBox="0 0 88 88" style="enable-background:new 0 0 88 88;" xml:space="preserve">
<style type="text/css">
	.st0{fill:#FFFFFF;}
</style>
<g id="Invoice_Online">
	<path class="st0" d="M13,28v40c0,0.6,0.4,1,1,1h60c0.6,0,1-0.4,1-1V28c0-0.6-0.4-1-1-1H62.4v2H73v38H15V29h10.6v-2H14
		C13.4,27,13,27.4,13,28z"/>
	<path class="st0" d="M79,22H62.5v2H78v48H10V24h15.5v-2H9c-0.6,0-1,0.4-1,1v50c0,0.6,0.4,1,1,1h26.7l-2.5,11H28c-0.6,0-1,0.4-1,1
		s0.4,1,1,1h32c0.6,0,1-0.4,1-1s-0.4-1-1-1h-5.2l-2.5-11H79c0.6,0,1-0.4,1-1V23C80,22.4,79.6,22,79,22z M52.7,85H35.3l2.5-11h12.4
		L52.7,85z"/>
	<path class="st0" d="M24,49c-0.6,0-1,0.4-1,1s0.4,1,1,1h40c0.6,0,1-0.4,1-1s-0.4-1-1-1h-3V2c0-0.6-0.4-1-1-1
		c-0.3,0-0.5,0.1-0.7,0.3L56,4.6l-3.3-3.3c-0.4-0.4-1-0.4-1.4,0L48,4.6l-3.3-3.3c-0.4-0.4-1-0.4-1.4,0L40,4.6l-3.3-3.3
		c-0.4-0.4-1-0.4-1.4,0L32,4.6l-3.3-3.3c-0.4-0.4-1-0.4-1.4,0C27.1,1.5,27,1.7,27,2v47H24z M29,4.4l2.3,2.3c0.4,0.4,1,0.4,1.4,0
		L36,3.4l3.3,3.3c0.4,0.4,1,0.4,1.4,0L44,3.4l3.3,3.3c0.4,0.4,1,0.4,1.4,0c0,0,0,0,0,0L52,3.4l3.3,3.3c0.4,0.4,1,0.4,1.4,0L59,4.4
		V49H29V4.4z"/>
	<g id="Group_147" class="st0">
		<path id="Path_87" d="M45.8,18.7c0.3-0.1,0.5-0.3,0.7-0.6c0.2-0.3,0.3-0.6,0.3-0.9c0-0.5-0.2-1.1-0.6-1.4c-0.4-0.4-1-0.5-1.6-0.5
			h-0.4v-0.6c0-0.1,0-0.2-0.1-0.3c-0.1-0.1-0.2-0.1-0.3-0.1h-0.5c0,0-0.1,0-0.1,0c-0.2,0-0.3,0.2-0.3,0.4v0.6h-1.5
			c-0.1,0-0.2,0-0.3,0.1C41,15.4,41,15.5,41,15.6v6.5c0,0.1,0,0.2,0.1,0.3c0.1,0.1,0.2,0.1,0.3,0.1h1.5v0.6c0,0.1,0,0.2,0.1,0.3
			c0.1,0.1,0.2,0.1,0.3,0.1h0.4c0.1,0,0.3,0,0.4-0.1c0.1-0.1,0.1-0.2,0.1-0.3v-0.6h0.5c0.6,0,1.2-0.2,1.7-0.6c0.4-0.4,0.6-1,0.6-1.5
			C47.1,19.6,46.5,18.9,45.8,18.7z M42.4,16.2h1.9c0.3,0,0.6,0.1,0.8,0.2c0.4,0.4,0.4,1.1,0,1.5c-0.2,0.2-0.5,0.3-0.8,0.3h-1.9V16.2
			z M45.6,20.5c-0.1,0.6-0.6,1-1.1,0.9h-2.1v-2.2h2c0.3,0,0.7,0.1,0.9,0.3c0.2,0.2,0.4,0.5,0.3,0.8C45.6,20.4,45.6,20.5,45.6,20.5z"
			/>
	</g>
	<path class="st0" d="M54,27H34c-0.6,0-1,0.4-1,1s0.4,1,1,1h20c0.6,0,1-0.4,1-1S54.6,27,54,27z"/>
	<path class="st0" d="M48,32H34c-0.6,0-1,0.4-1,1s0.4,1,1,1h14c0.6,0,1-0.4,1-1S48.6,32,48,32z"/>
	<path class="st0" d="M48,37H34c-0.6,0-1,0.4-1,1s0.4,1,1,1h14c0.6,0,1-0.4,1-1S48.6,37,48,37z"/>
	<path class="st0" d="M48,42H34c-0.6,0-1,0.4-1,1s0.4,1,1,1h14c0.6,0,1-0.4,1-1S48.6,42,48,42z"/>
	<path class="st0" d="M54,32h-2c-0.6,0-1,0.4-1,1s0.4,1,1,1h2c0.6,0,1-0.4,1-1S54.6,32,54,32z"/>
	<path class="st0" d="M54,37h-2c-0.6,0-1,0.4-1,1s0.4,1,1,1h2c0.6,0,1-0.4,1-1S54.6,37,54,37z"/>
	<path class="st0" d="M54,42h-2c-0.6,0-1,0.4-1,1s0.4,1,1,1h2c0.6,0,1-0.4,1-1S54.6,42,54,42z"/>
	<path class="st0" d="M50,20h2c0.6,0,1-0.4,1-1s-0.4-1-1-1h-2c-0.6,0-1,0.4-1,1S49.4,20,50,20z"/>
	<path class="st0" d="M36,20h2c0.6,0,1-0.4,1-1s-0.4-1-1-1h-2c-0.6,0-1,0.4-1,1S35.4,20,36,20z"/>
</g>
</svg>
