<?xml version="1.0" encoding="utf-8"?>
<!-- Generator: Adobe Illustrator 25.1.0, SVG Export Plug-In . SVG Version: 6.00 Build 0)  -->
<svg version="1.1" id="Layer_1" xmlns="http://www.w3.org/2000/svg" xmlns:xlink="http://www.w3.org/1999/xlink" x="0px" y="0px"
	 viewBox="0 0 64 64" style="enable-background:new 0 0 64 64;" xml:space="preserve">
<style type="text/css">
	.st0{fill:#0E4B8D;}
</style>
<g id="Presentation">
	<path class="st0" d="M17,37c5,0,9-4,9-9s-4-9-9-9s-9,4-9,9C8,33,12,37,17,37z M17,21c3.9,0,7,3.1,7,7s-3.1,7-7,7s-7-3.1-7-7
		C10,24.1,13.1,21,17,21z"/>
	<path class="st0" d="M8,41h18c0.6,0,1-0.4,1-1s-0.4-1-1-1H8c-0.6,0-1,0.4-1,1S7.4,41,8,41z"/>
	<path class="st0" d="M8,45h12c0.6,0,1-0.4,1-1s-0.4-1-1-1H8c-0.6,0-1,0.4-1,1S7.4,45,8,45z"/>
	<path class="st0" d="M8,49h12c0.6,0,1-0.4,1-1s-0.4-1-1-1H8c-0.6,0-1,0.4-1,1S7.4,49,8,49z"/>
	<path class="st0" d="M34.5,36.5c0.3,0,0.5-0.1,0.7-0.3L49,22.4V25c0,0.6,0.4,1,1,1s1-0.4,1-1v-5c0-0.1,0-0.3-0.1-0.4
		C50.8,19.2,50.4,19,50,19h-5c-0.6,0-1,0.4-1,1s0.4,1,1,1h2.6L33.8,34.8c-0.4,0.4-0.4,1,0,1.4C34,36.4,34.2,36.5,34.5,36.5z"/>
	<path class="st0" d="M30,49h26c0.6,0,1-0.4,1-1V25c0-0.6-0.4-1-1-1s-1,0.4-1,1v22h-2V29c0-0.6-0.4-1-1-1h-4c-0.6,0-1,0.4-1,1v18h-2
		V36c0-0.6-0.4-1-1-1h-4c-0.6,0-1,0.4-1,1v11h-2v-6c0-0.6-0.4-1-1-1h-4c-0.6,0-1,0.4-1,1v6h-1c-0.6,0-1,0.4-1,1S29.4,49,30,49z
		 M49,30h2v17h-2V30z M41,37h2v10h-2V37z M33,42h2v5h-2V42z"/>
	<path class="st0" d="M26,43h-3c-0.6,0-1,0.4-1,1s0.4,1,1,1h3c0.6,0,1-0.4,1-1S26.6,43,26,43z"/>
	<path class="st0" d="M26,47h-3c-0.6,0-1,0.4-1,1s0.4,1,1,1h3c0.6,0,1-0.4,1-1S26.6,47,26,47z"/>
	<path class="st0" d="M62,11H45.3l-9.5-5.8C35.9,4.8,36,4.4,36,4c0-2.2-1.8-4-4-4s-4,1.8-4,4c0,0.4,0.1,0.8,0.2,1.2L18.7,11H2
		c-0.6,0-1,0.4-1,1v4c0,0.6,0.4,1,1,1h1v35c0,0.6,0.4,1,1,1h27v5.2c-1.6,0.6-2.4,2.3-1.8,3.8c0.6,1.6,2.3,2.4,3.8,1.8
		c1.6-0.6,2.4-2.3,1.8-3.8c-0.3-0.9-1-1.5-1.8-1.8V53h27c0.6,0,1-0.4,1-1V17h1c0.6,0,1-0.4,1-1v-4C63,11.4,62.6,11,62,11z M32,62
		c-0.6,0-1-0.4-1-1s0.4-1,1-1s1,0.4,1,1S32.6,62,32,62z M32,2c1.1,0,2,0.9,2,2s-0.9,2-2,2c-1.1,0-2-0.9-2-2S30.9,2,32,2z M29.2,6.9
		c1.5,1.5,4,1.5,5.5,0l6.7,4.1H22.5L29.2,6.9z M59,51H5V17h54V51z M61,15H3v-2h58V15z"/>
	<g id="Group_147" class="st0">
		<path id="Path_87" d="M18.8,27.9c0.3-0.1,0.5-0.3,0.7-0.6c0.2-0.3,0.3-0.6,0.3-0.9c0-0.5-0.2-1.1-0.6-1.4c-0.4-0.4-1-0.5-1.6-0.5
			h-0.4v-0.6c0-0.1,0-0.2-0.1-0.3c-0.1-0.1-0.2-0.1-0.3-0.1h-0.5c0,0-0.1,0-0.1,0c-0.2,0-0.3,0.2-0.3,0.4v0.6h-1.5
			c-0.1,0-0.2,0-0.3,0.1C14,24.6,14,24.7,14,24.8v6.5c0,0.1,0,0.2,0.1,0.3c0.1,0.1,0.2,0.1,0.3,0.1h1.5v0.6c0,0.1,0,0.2,0.1,0.3
			c0.1,0.1,0.2,0.1,0.3,0.1h0.4c0.1,0,0.3,0,0.4-0.1c0.1-0.1,0.1-0.2,0.1-0.3v-0.6h0.5c0.6,0,1.2-0.2,1.7-0.6c0.4-0.4,0.6-1,0.6-1.5
			C20.1,28.8,19.5,28,18.8,27.9z M15.4,25.4h1.9c0.3,0,0.6,0.1,0.8,0.2c0.4,0.4,0.4,1.1,0,1.5c-0.2,0.2-0.5,0.3-0.8,0.3h-1.9V25.4z
			 M18.6,29.7c-0.1,0.6-0.6,1-1.1,0.9h-2.1v-2.2h2c0.3,0,0.7,0.1,0.9,0.3c0.2,0.2,0.4,0.5,0.3,0.8C18.6,29.6,18.6,29.7,18.6,29.7z"
			/>
	</g>
</g>
</svg>
