<?xml version="1.0" encoding="utf-8"?>
<!-- Generator: Adobe Illustrator 25.1.0, SVG Export Plug-In . SVG Version: 6.00 Build 0)  -->
<svg version="1.1" id="Layer_1" xmlns="http://www.w3.org/2000/svg" xmlns:xlink="http://www.w3.org/1999/xlink" x="0px" y="0px"
	 viewBox="0 0 64 64" style="enable-background:new 0 0 64 64;" xml:space="preserve">
<style type="text/css">
	.st0{fill:#0E4B8D;}
</style>
<g id="Clipboard">
	<path class="st0" d="M63,4H50.5l-2.7-3.6C47.6,0.1,47.3,0,47,0H35c-0.3,0-0.6,0.1-0.8,0.4L31.5,4H19c-0.6,0-1,0.4-1,1v58
		c0,0.6,0.4,1,1,1h44c0.6,0,1-0.4,1-1V5C64,4.4,63.6,4,63,4z M24,6h2v5c0,0.6,0.4,1,1,1h28c0.6,0,1-0.4,1-1V6h2v52H24V6z M32,6
		c0.3,0,0.6-0.1,0.8-0.4L35.5,2h11l2.7,3.6C49.4,5.9,49.7,6,50,6h4v4H28V6H32z M62,62H20V6h2v53c0,0.6,0.4,1,1,1h36c0.6,0,1-0.4,1-1
		V6h2V62z"/>
	<path class="st0" d="M15,6h-1V1c0-0.6-0.4-1-1-1H9C8.4,0,8,0.4,8,1v5H5C3.3,6,2,7.3,2,9v15.8c0,1-0.6,1.9-1.4,2.3
		c-0.5,0.2-0.7,0.8-0.4,1.3s0.8,0.7,1.3,0.4C3,28.1,4,26.5,4,24.8V9c0-0.6,0.4-1,1-1h1v44c0,0.2,0.1,0.3,0.1,0.5l3.9,6.8V63
		c0,0.6,0.4,1,1,1s1-0.4,1-1v-3.7l3.9-6.8c0.1-0.2,0.1-0.3,0.1-0.5V7C16,6.4,15.6,6,15,6z M11,57l-2.3-4h4.6L11,57z M8,51V8h6v43H8z
		 M10,2h2v4h-2V2z"/>
	<path class="st0" d="M11,10c-0.6,0-1,0.4-1,1v16c0,0.6,0.4,1,1,1s1-0.4,1-1V11C12,10.4,11.6,10,11,10z"/>
	<g id="Group_147">
		<path id="Path_87" d="M31.6,21.2c0.3-0.1,0.5-0.3,0.7-0.6c0.2-0.3,0.3-0.6,0.3-0.9c0-0.5-0.2-1.1-0.6-1.4c-0.4-0.4-1-0.5-1.6-0.5
			H30v-0.6c0-0.1,0-0.2-0.1-0.3c-0.1-0.1-0.2-0.1-0.3-0.1h-0.5c0,0-0.1,0-0.1,0c-0.2,0-0.3,0.2-0.3,0.4v0.6h-1.5
			c-0.1,0-0.2,0-0.3,0.1c-0.1,0.1-0.1,0.2-0.1,0.3v6.5c0,0.1,0,0.2,0.1,0.3c0.1,0.1,0.2,0.1,0.3,0.1h1.5v0.6c0,0.1,0,0.2,0.1,0.3
			C28.9,26,29,26,29.1,26h0.4c0.1,0,0.3,0,0.4-0.1c0.1-0.1,0.1-0.2,0.1-0.3V25h0.5c0.6,0,1.2-0.2,1.7-0.6c0.4-0.4,0.6-1,0.6-1.5
			C32.8,22.1,32.3,21.4,31.6,21.2z M28.2,18.8H30c0.3,0,0.6,0.1,0.8,0.2c0.4,0.4,0.4,1.1,0,1.5c-0.2,0.2-0.5,0.3-0.8,0.3h-1.9V18.8z
			 M31.4,23.1c-0.1,0.6-0.6,1-1.1,0.9h-2.1v-2.2h2c0.3,0,0.7,0.1,0.9,0.3c0.2,0.2,0.4,0.5,0.3,0.8C31.4,23,31.4,23,31.4,23.1z"/>
	</g>
	<path class="st0" d="M55,14H36c-0.6,0-1,0.4-1,1s0.4,1,1,1h19c0.6,0,1-0.4,1-1S55.6,14,55,14z"/>
	<path class="st0" d="M55,18H36c-0.6,0-1,0.4-1,1s0.4,1,1,1h19c0.6,0,1-0.4,1-1S55.6,18,55,18z"/>
	<path class="st0" d="M55,22H36c-0.6,0-1,0.4-1,1s0.4,1,1,1h19c0.6,0,1-0.4,1-1S55.6,22,55,22z"/>
	<path class="st0" d="M55,26H36c-0.6,0-1,0.4-1,1s0.4,1,1,1h19c0.6,0,1-0.4,1-1S55.6,26,55,26z"/>
	<path class="st0" d="M55,30H28c-0.6,0-1,0.4-1,1s0.4,1,1,1h27c0.6,0,1-0.4,1-1S55.6,30,55,30z"/>
	<path class="st0" d="M55,34H28c-0.6,0-1,0.4-1,1s0.4,1,1,1h27c0.6,0,1-0.4,1-1S55.6,34,55,34z"/>
	<path class="st0" d="M55,38H28c-0.6,0-1,0.4-1,1s0.4,1,1,1h27c0.6,0,1-0.4,1-1S55.6,38,55,38z"/>
	<path class="st0" d="M55,42H28c-0.6,0-1,0.4-1,1s0.4,1,1,1h27c0.6,0,1-0.4,1-1S55.6,42,55,42z"/>
	<path class="st0" d="M55,46H28c-0.6,0-1,0.4-1,1s0.4,1,1,1h27c0.6,0,1-0.4,1-1S55.6,46,55,46z"/>
	<path class="st0" d="M55,50H28c-0.6,0-1,0.4-1,1s0.4,1,1,1h27c0.6,0,1-0.4,1-1S55.6,50,55,50z"/>
	<path class="st0" d="M55,54H28c-0.6,0-1,0.4-1,1s0.4,1,1,1h27c0.6,0,1-0.4,1-1S55.6,54,55,54z"/>
</g>
</svg>
