<?xml version="1.0" encoding="utf-8"?>
<!-- Generator: Adobe Illustrator 25.1.0, SVG Export Plug-In . SVG Version: 6.00 Build 0)  -->
<svg version="1.1" id="Layer_1" xmlns="http://www.w3.org/2000/svg" xmlns:xlink="http://www.w3.org/1999/xlink" x="0px" y="0px"
	 viewBox="0 0 64 64" style="enable-background:new 0 0 64 64;" xml:space="preserve">
<style type="text/css">
	.st0{fill:url(#SVGID_1_);}
</style>
<g id="Calculator">

	<linearGradient id="SVGID_1_" gradientUnits="userSpaceOnUse" x1="22" y1="45" x2="42" y2="45" gradientTransform="matrix(1 0 0 -1 0 66)">
		<stop  offset="0%" style="stop-color:#0E4B8D"/>
		<stop  offset="50%" style="stop-color:#4B80A2"/>
		<stop  offset="100%" style="stop-color:#8DBAB9"/>
	</linearGradient>
	<path class="st0" d="M11,53H7c-0.6,0-1,0.4-1,1v4c0,0.6,0.4,1,1,1h4c0.6,0,1-0.4,1-1v-4C12,53.4,11.6,53,11,53z M10,57H8v-2h2V57z"
		/>
	<path class="st0" d="M19,53h-4c-0.6,0-1,0.4-1,1v4c0,0.6,0.4,1,1,1h4c0.6,0,1-0.4,1-1v-4C20,53.4,19.6,53,19,53z M18,57h-2v-2h2V57
		z"/>
	<path class="st0" d="M27,53h-4c-0.6,0-1,0.4-1,1v4c0,0.6,0.4,1,1,1h4c0.6,0,1-0.4,1-1v-4C28,53.4,27.6,53,27,53z M26,57h-2v-2h2V57
		z"/>
	<path class="st0" d="M12,46c0-0.6-0.4-1-1-1H7c-0.6,0-1,0.4-1,1v4c0,0.6,0.4,1,1,1h4c0.6,0,1-0.4,1-1V46z M10,49H8v-2h2V49z"/>
	<path class="st0" d="M20,46c0-0.6-0.4-1-1-1h-4c-0.6,0-1,0.4-1,1v4c0,0.6,0.4,1,1,1h4c0.6,0,1-0.4,1-1V46z M18,49h-2v-2h2V49z"/>
	<path class="st0" d="M28,46c0-0.6-0.4-1-1-1h-4c-0.6,0-1,0.4-1,1v4c0,0.6,0.4,1,1,1h4c0.6,0,1-0.4,1-1V46z M26,49h-2v-2h2V49z"/>
	<path class="st0" d="M12,38c0-0.6-0.4-1-1-1H7c-0.6,0-1,0.4-1,1v4c0,0.6,0.4,1,1,1h4c0.6,0,1-0.4,1-1V38z M10,41H8v-2h2V41z"/>
	<path class="st0" d="M20,38c0-0.6-0.4-1-1-1h-4c-0.6,0-1,0.4-1,1v4c0,0.6,0.4,1,1,1h4c0.6,0,1-0.4,1-1V38z M18,41h-2v-2h2V41z"/>
	<path class="st0" d="M28,38c0-0.6-0.4-1-1-1h-4c-0.6,0-1,0.4-1,1v4c0,0.6,0.4,1,1,1h4c0.6,0,1-0.4,1-1V38z M26,41h-2v-2h2V41z"/>
	<path class="st0" d="M28,26c0-0.6-0.4-1-1-1H7c-0.6,0-1,0.4-1,1v8c0,0.6,0.4,1,1,1h20c0.6,0,1-0.4,1-1V26z M26,33H8v-6h18V33z"/>
	<path class="st0" d="M17,7h24c0.6,0,1-0.4,1-1s-0.4-1-1-1H17c-0.6,0-1,0.4-1,1S16.4,7,17,7z"/>
	<path class="st0" d="M17,11h24c0.6,0,1-0.4,1-1s-0.4-1-1-1H17c-0.6,0-1,0.4-1,1S16.4,11,17,11z"/>
	<path class="st0" d="M17,15h24c0.6,0,1-0.4,1-1s-0.4-1-1-1H17c-0.6,0-1,0.4-1,1S16.4,15,17,15z"/>
	<path class="st0" d="M17,19h24c0.6,0,1-0.4,1-1s-0.4-1-1-1H17c-0.6,0-1,0.4-1,1S16.4,19,17,19z"/>
	<path class="st0" d="M41,21h-6c-0.6,0-1,0.4-1,1s0.4,1,1,1h6c0.6,0,1-0.4,1-1S41.6,21,41,21z"/>
	<path class="st0" d="M41,25h-6c-0.6,0-1,0.4-1,1s0.4,1,1,1h6c0.6,0,1-0.4,1-1S41.6,25,41,25z"/>
	<path class="st0" d="M41,29h-6c-0.6,0-1,0.4-1,1s0.4,1,1,1h6c0.6,0,1-0.4,1-1S41.6,29,41,29z"/>
	<path class="st0" d="M41,33h-6c-0.6,0-1,0.4-1,1s0.4,1,1,1h6c0.6,0,1-0.4,1-1S41.6,33,41,33z"/>
	<path class="st0" d="M41,37h-6c-0.6,0-1,0.4-1,1s0.4,1,1,1h6c0.6,0,1-0.4,1-1S41.6,37,41,37z"/>
	<path class="st0" d="M41,41h-6c-0.6,0-1,0.4-1,1s0.4,1,1,1h6c0.6,0,1-0.4,1-1S41.6,41,41,41z"/>
	<path class="st0" d="M41,45h-6c-0.6,0-1,0.4-1,1s0.4,1,1,1h6c0.6,0,1-0.4,1-1S41.6,45,41,45z"/>
	<path class="st0" d="M41,49h-6c-0.6,0-1,0.4-1,1s0.4,1,1,1h6c0.6,0,1-0.4,1-1S41.6,49,41,49z"/>
	<path class="st0" d="M41,53h-6c-0.6,0-1,0.4-1,1s0.4,1,1,1h6c0.6,0,1-0.4,1-1S41.6,53,41,53z"/>
	<path class="st0" d="M41,57h-6c-0.6,0-1,0.4-1,1s0.4,1,1,1h6c0.6,0,1-0.4,1-1S41.6,57,41,57z"/>
	<path class="st0" d="M61,16h-7V6c0-2.8-2.2-5-5-5H7C4.2,1,2,3.2,2,6v12c0,0.6,0.4,1,1,1s1-0.4,1-1V6c0-1.7,1.3-3,3-3h38
		c-0.6,0.9-1,1.9-1,3v55H4V23h26v35c0,0.6,0.4,1,1,1s1-0.4,1-1V22c0-0.6-0.4-1-1-1H3c-0.6,0-1,0.4-1,1v40c0,0.6,0.4,1,1,1h42
		c0.6,0,1-0.4,1-1V40h11c2.8,0,5-2.2,5-5V17C62,16.4,61.6,16,61,16z M46,38V6c0-1.7,1.3-3,3-3s3,1.3,3,3v29c0,1.1,0.4,2.1,1,3H46z
		 M60,35c0,1.7-1.3,3-3,3s-3-1.3-3-3V18h6V35z"/>
	<path class="st0" d="M10,32c0.6,0,1-0.4,1-1v-2c0-0.6-0.4-1-1-1s-1,0.4-1,1v2C9,31.6,9.4,32,10,32z"/>
	<path class="st0" d="M13,32c0.6,0,1-0.4,1-1v-2c0-0.6-0.4-1-1-1s-1,0.4-1,1v2C12,31.6,12.4,32,13,32z"/>
	<path class="st0" d="M16,32c0.6,0,1-0.4,1-1v-2c0-0.6-0.4-1-1-1c-0.6,0-1,0.4-1,1v2C15,31.6,15.4,32,16,32z"/>
	<g id="Group_147">
		<path class="st0" id="Path_87" d="M12.5,11.2c0.4-0.1,0.7-0.4,0.9-0.7c0.2-0.3,0.3-0.7,0.3-1.1c0-0.7-0.2-1.3-0.7-1.8c-0.5-0.5-1.2-0.7-2-0.7
			h-0.5V6.1c0-0.1,0-0.3-0.1-0.4c-0.1-0.1-0.2-0.1-0.4-0.1H9.4c-0.1,0-0.1,0-0.1,0C9,5.6,8.9,5.8,8.9,6.1v0.8H7
			c-0.1,0-0.3,0-0.4,0.1C6.6,7.1,6.5,7.2,6.5,7.3v8.1c0,0.1,0,0.3,0.1,0.4c0.1,0.1,0.2,0.1,0.4,0.1h1.9v0.8c0,0.1,0,0.3,0.1,0.4
			c0.1,0.1,0.3,0.1,0.4,0.1h0.5c0.2,0,0.3,0,0.5-0.1c0.1-0.1,0.1-0.2,0.1-0.4v-0.8h0.7c0.8,0,1.5-0.2,2.1-0.7
			c0.5-0.5,0.8-1.2,0.8-1.9C14.1,12.3,13.5,11.4,12.5,11.2z M8.3,8.1h2.3c0.4,0,0.7,0.1,1,0.3c0.4,0.5,0.4,1.3,0,1.9
			c-0.3,0.2-0.6,0.4-1,0.3H8.3V8.1z M12.3,13.5c-0.1,0.7-0.7,1.2-1.4,1.1H8.3v-2.8h2.4c0.4,0,0.8,0.1,1.2,0.4c0.3,0.3,0.4,0.7,0.4,1
			C12.3,13.4,12.3,13.5,12.3,13.5z"/>
	</g>
</g>
</svg>
