<?xml version="1.0" encoding="utf-8"?>
<!-- Generator: Adobe Illustrator 25.1.0, SVG Export Plug-In . SVG Version: 6.00 Build 0)  -->
<svg version="1.1" id="Layer_1" xmlns="http://www.w3.org/2000/svg" xmlns:xlink="http://www.w3.org/1999/xlink" x="0px" y="0px"
	 viewBox="0 0 64 64" style="enable-background:new 0 0 64 64;" xml:space="preserve">
<style type="text/css">
	.st0{fill:#0E4B8D;}
</style>
<g id="TV">
	<path class="st0" d="M58,9h-3c-0.6,0-1,0.4-1,1s0.4,1,1,1h2v30h-5V8c0-0.3-0.1-0.5-0.3-0.7l-7-7C44.5,0.1,44.3,0,44,0H13
		c-0.6,0-1,0.4-1,1v40H7V11h2c0.6,0,1-0.4,1-1S9.6,9,9,9H6c-0.6,0-1,0.4-1,1v38c0,0.6,0.4,1,1,1h17.6l-2.3,7H17c-0.6,0-1,0.4-1,1v6
		c0,0.6,0.4,1,1,1h30c0.6,0,1-0.4,1-1v-6c0-0.6-0.4-1-1-1h-4.3l-2.3-7H58c0.6,0,1-0.4,1-1V10C59,9.4,58.6,9,58,9z M48.6,7H45V3.4
		L48.6,7z M14,2h29v6c0,0.6,0.4,1,1,1h6v32h-3V12c0-0.6-0.4-1-1-1s-1,0.4-1,1v29h-4V6c0-0.6-0.4-1-1-1s-1,0.4-1,1v35h-3V16
		c0-0.6-0.4-1-1-1h-6c-0.6,0-1,0.4-1,1v25h-3V27c0-0.6-0.4-1-1-1h-6c-0.6,0-1,0.4-1,1v14h-3V2z M34,41h-4V17h4V41z M23,41h-4V28h4
		V41z M46,62H18v-4h28V62z M40.6,56H23.4l2.3-7h12.6L40.6,56z M57,47H7v-4h50V47z"/>
	<path class="st0" d="M15,44h-5c-0.6,0-1,0.4-1,1s0.4,1,1,1h5c0.6,0,1-0.4,1-1S15.6,44,15,44z"/>
	<path class="st0" d="M22.8,17.5c0.3-0.1,0.5-0.3,0.7-0.6c0.2-0.3,0.3-0.6,0.3-0.9c0-0.5-0.2-1.1-0.6-1.4c-0.4-0.4-1-0.5-1.6-0.5
		h-0.4v-0.6c0-0.1,0-0.2-0.1-0.3C21,13,20.9,13,20.8,13h-0.5c0,0-0.1,0-0.1,0c-0.2,0-0.3,0.2-0.3,0.4V14h-1.5c-0.1,0-0.2,0-0.3,0.1
		C18,14.2,18,14.3,18,14.4v6.5c0,0.1,0,0.2,0.1,0.3c0.1,0.1,0.2,0.1,0.3,0.1h1.5v0.6c0,0.1,0,0.2,0.1,0.3c0.1,0.1,0.2,0.1,0.3,0.1
		h0.4c0.1,0,0.3,0,0.4-0.1c0.1-0.1,0.1-0.2,0.1-0.3v-0.6h0.5c0.6,0,1.2-0.2,1.7-0.6c0.4-0.4,0.6-1,0.6-1.5
		C24.1,18.4,23.5,17.7,22.8,17.5z M19.4,15h1.9c0.3,0,0.6,0.1,0.8,0.2c0.4,0.4,0.4,1.1,0,1.5c-0.2,0.2-0.5,0.3-0.8,0.3h-1.9V15z
		 M22.6,19.4c-0.1,0.6-0.6,1-1.1,0.9h-2.1V18h2c0.3,0,0.7,0.1,0.9,0.3c0.2,0.2,0.4,0.5,0.3,0.8C22.6,19.2,22.6,19.3,22.6,19.4z"/>
</g>
</svg>
