<?xml version="1.0" encoding="utf-8"?>
<!-- Generator: Adobe Illustrator 25.1.0, SVG Export Plug-In . SVG Version: 6.00 Build 0)  -->
<svg version="1.1" id="Layer_1" xmlns="http://www.w3.org/2000/svg" xmlns:xlink="http://www.w3.org/1999/xlink" x="0px" y="0px"
	 viewBox="0 0 64 64" style="enable-background:new 0 0 64 64;" xml:space="preserve">
<style type="text/css">
	<!-- .st0{fill:#232328;} -->
	.st0{fill:url(#SVGID_1_);}
</style>
<g id="Invoice">

	<linearGradient id="SVGID_1_" gradientUnits="userSpaceOnUse" x1="22" y1="45" x2="42" y2="45" gradientTransform="matrix(1 0 0 -1 0 66)">
		<stop  offset="0%" style="stop-color:#0E4B8D"/>
		<stop  offset="50%" style="stop-color:#4B80A2"/>
		<stop  offset="100%" style="stop-color:#8DBAB9"/>
	</linearGradient>
	<path class="st0" d="M63,45h-9V1c0-0.6-0.4-1-1-1c-0.2,0-0.4,0.1-0.6,0.2l-4.7,3.5l-4.7-3.5c-0.4-0.3-0.9-0.3-1.2,0l-4.6,3.5
		l-4.6-3.5c-0.4-0.3-0.9-0.3-1.2,0l-4.6,3.5l-4.6-3.5c-0.4-0.3-0.9-0.3-1.2,0l-4.6,3.5l-4.6-3.5c-0.4-0.3-1.1-0.2-1.4,0.2
		C10.1,0.6,10,0.8,10,1v32c0,0.6,0.4,1,1,1s1-0.4,1-1V3l3.6,2.8c0.4,0.3,0.9,0.3,1.2,0l4.6-3.5l4.6,3.5c0.4,0.3,0.9,0.3,1.2,0
		L32,2.3l4.6,3.5c0.4,0.3,0.9,0.3,1.2,0l4.6-3.5l4.6,3.5c0.4,0.3,0.9,0.3,1.2,0L52,3v55c0,1.5,0.6,2.9,1.5,4H2V38h42v21
		c0,0.6,0.4,1,1,1s1-0.4,1-1V37c0-0.6-0.4-1-1-1H1c-0.6,0-1,0.4-1,1v26c0,0.6,0.4,1,1,1h57c3.3,0,6-2.7,6-6V46
		C64,45.4,63.6,45,63,45z M62,58c0,2.2-1.8,4-4,4s-4-1.8-4-4V47h8V58z"/>
	<path class="st0" d="M37,41c0-0.6-0.4-1-1-1H10c-0.6,0-1,0.4-1,1c0,2.2-1.8,4-4,4c-0.6,0-1,0.4-1,1v8c0,0.6,0.4,1,1,1
		c2.2,0,4,1.8,4,4c0,0.6,0.4,1,1,1h26c0.6,0,1-0.4,1-1c0-2.2,1.8-4,4-4c0.6,0,1-0.4,1-1v-8c0-0.6-0.4-1-1-1C38.8,45,37,43.2,37,41z
		 M40,53.1c-2.5,0.4-4.5,2.4-4.9,4.9H10.9c-0.4-2.5-2.4-4.5-4.9-4.9v-6.2c2.5-0.4,4.5-2.4,4.9-4.9h24.2c0.4,2.5,2.4,4.5,4.9,4.9
		V53.1z"/>
	<path class="st0" d="M49,11H15c-0.6,0-1,0.4-1,1s0.4,1,1,1h34c0.6,0,1-0.4,1-1S49.6,11,49,11z"/>
	<path class="st0" d="M15,18h29c0.6,0,1-0.4,1-1s-0.4-1-1-1H15c-0.6,0-1,0.4-1,1S14.4,18,15,18z"/>
	<path class="st0" d="M15,23h29c0.6,0,1-0.4,1-1s-0.4-1-1-1H15c-0.6,0-1,0.4-1,1S14.4,23,15,23z"/>
	<path class="st0" d="M15,28h29c0.6,0,1-0.4,1-1s-0.4-1-1-1H15c-0.6,0-1,0.4-1,1S14.4,28,15,28z"/>
	<path class="st0" d="M15,33h29c0.6,0,1-0.4,1-1s-0.4-1-1-1H15c-0.6,0-1,0.4-1,1S14.4,33,15,33z"/>
	<path class="st0" d="M49,16h-2c-0.6,0-1,0.4-1,1s0.4,1,1,1h2c0.6,0,1-0.4,1-1S49.6,16,49,16z"/>
	<path class="st0" d="M49,21h-2c-0.6,0-1,0.4-1,1s0.4,1,1,1h2c0.6,0,1-0.4,1-1S49.6,21,49,21z"/>
	<path class="st0" d="M49,26h-2c-0.6,0-1,0.4-1,1s0.4,1,1,1h2c0.6,0,1-0.4,1-1S49.6,26,49,26z"/>
	<path class="st0" d="M49,31h-2c-0.6,0-1,0.4-1,1s0.4,1,1,1h2c0.6,0,1-0.4,1-1S49.6,31,49,31z"/>
	<g id="Group_147">
		<path class="st0" id="Path_87" d="M25.7,49c0.4-0.1,0.7-0.4,0.9-0.7c0.2-0.3,0.3-0.7,0.3-1.1c0-0.7-0.2-1.3-0.7-1.7c-0.5-0.4-1.2-0.7-1.9-0.6
			h-0.5V44c0-0.1,0-0.3-0.1-0.4c-0.1-0.1-0.2-0.1-0.4-0.1h-0.6c-0.1,0-0.1,0-0.1,0c-0.2,0-0.4,0.2-0.4,0.5v0.7h-1.8
			c-0.1,0-0.3,0-0.4,0.1c-0.1,0.1-0.1,0.2-0.1,0.4v7.8c0,0.1,0,0.3,0.1,0.4c0.1,0.1,0.2,0.1,0.4,0.1h1.8v0.7c0,0.1,0,0.3,0.1,0.4
			c0.1,0.1,0.2,0.1,0.4,0.1h0.5c0.2,0,0.3,0,0.5-0.1c0.1-0.1,0.1-0.2,0.1-0.4v-0.7h0.6c0.7,0,1.5-0.2,2-0.7c0.5-0.5,0.8-1.2,0.7-1.8
			C27.2,50,26.6,49.2,25.7,49z M21.6,46h2.3c0.4,0,0.7,0.1,1,0.3c0.4,0.5,0.4,1.3,0,1.8c-0.3,0.2-0.6,0.3-1,0.3h-2.3V46z M25.5,51.2
			c-0.1,0.7-0.7,1.2-1.4,1.1h-2.5v-2.7h2.4c0.4,0,0.8,0.1,1.1,0.3c0.3,0.3,0.4,0.6,0.4,1C25.5,51.1,25.5,51.2,25.5,51.2z"/>
	</g>
</g>
</svg>
