<?xml version="1.0" encoding="utf-8"?>
<!-- Generator: Adobe Illustrator 25.1.0, SVG Export Plug-In . SVG Version: 6.00 Build 0)  -->
<svg version="1.1" id="Layer_1" xmlns="http://www.w3.org/2000/svg" xmlns:xlink="http://www.w3.org/1999/xlink" x="0px" y="0px"
	 viewBox="0 0 64 64" style="enable-background:new 0 0 64 64;" xml:space="preserve">
<style type="text/css">
	.st0{fill:url(#SVGID_1_);}
	.st1{fill:url(#SVGID_2_);}
	.st2{fill:url(#SVGID_3_);}
	.st3{fill:url(#SVGID_4_);}
	.st4{fill:url(#SVGID_5_);}
	.st5{fill:url(#SVGID_6_);}
	.st6{fill:url(#SVGID_7_);}
	.st7{fill:url(#SVGID_8_);}
	.st8{fill:url(#SVGID_9_);}
	.st9{fill:url(#SVGID_10_);}
	.st10{fill:url(#SVGID_11_);}
	.st11{fill:url(#SVGID_12_);}
	.st12{fill:url(#Path_87_1_);}
</style>
<g>
	<g id="Commerce">
			<linearGradient id="SVGID_1_" gradientUnits="userSpaceOnUse" x1="22" y1="45" x2="42" y2="45" gradientTransform="matrix(1 0 0 -1 0 66)">
			<stop  offset="0%" style="stop-color:#0E4B8D"/>
			<stop  offset="50%" style="stop-color:#4B80A2"/>
			<stop  offset="100%" style="stop-color:#8DBAB9"/>
		</linearGradient>
		<path class="st0" d="M23,22h18c0.6,0,1-0.4,1-1s-0.4-1-1-1H23c-0.6,0-1,0.4-1,1S22.4,22,23,22z"/>
		
			<linearGradient id="SVGID_2_" gradientUnits="userSpaceOnUse" x1="22" y1="41" x2="37" y2="41" gradientTransform="matrix(1 0 0 -1 0 66)">
			<stop  offset="0%" style="stop-color:#0E4B8D"/>
			<stop  offset="50%" style="stop-color:#4B80A2"/>
			<stop  offset="100%" style="stop-color:#8DBAB9"/>
		</linearGradient>
		<path class="st1" d="M23,26h13c0.6,0,1-0.4,1-1s-0.4-1-1-1H23c-0.6,0-1,0.4-1,1S22.4,26,23,26z"/>
		
			<linearGradient id="SVGID_3_" gradientUnits="userSpaceOnUse" x1="22" y1="37" x2="37" y2="37" gradientTransform="matrix(1 0 0 -1 0 66)">
			<stop  offset="0%" style="stop-color:#0E4B8D"/>
			<stop  offset="50%" style="stop-color:#4B80A2"/>
			<stop  offset="100%" style="stop-color:#8DBAB9"/>
		</linearGradient>
		<path class="st2" d="M23,30h13c0.6,0,1-0.4,1-1s-0.4-1-1-1H23c-0.6,0-1,0.4-1,1S22.4,30,23,30z"/>
		
			<linearGradient id="SVGID_4_" gradientUnits="userSpaceOnUse" x1="22" y1="33" x2="37" y2="33" gradientTransform="matrix(1 0 0 -1 0 66)">
			<stop  offset="0%" style="stop-color:#0E4B8D"/>
			<stop  offset="50%" style="stop-color:#4B80A2"/>
			<stop  offset="100%" style="stop-color:#8DBAB9"/>
		</linearGradient>
		<path class="st3" d="M23,34h13c0.6,0,1-0.4,1-1s-0.4-1-1-1H23c-0.6,0-1,0.4-1,1S22.4,34,23,34z"/>
		
			<linearGradient id="SVGID_5_" gradientUnits="userSpaceOnUse" x1="38" y1="33" x2="42" y2="33" gradientTransform="matrix(1 0 0 -1 0 66)">
			<stop  offset="0%" style="stop-color:#0E4B8D"/>
			<stop  offset="50%" style="stop-color:#4B80A2"/>
			<stop  offset="100%" style="stop-color:#8DBAB9"/>
		</linearGradient>
		<path class="st4" d="M41,32h-2c-0.6,0-1,0.4-1,1s0.4,1,1,1h2c0.6,0,1-0.4,1-1S41.6,32,41,32z"/>
		
			<linearGradient id="SVGID_6_" gradientUnits="userSpaceOnUse" x1="22" y1="29" x2="37" y2="29" gradientTransform="matrix(1 0 0 -1 0 66)">
			<stop  offset="0%" style="stop-color:#0E4B8D"/>
			<stop  offset="50%" style="stop-color:#4B80A2"/>
			<stop  offset="100%" style="stop-color:#8DBAB9"/>
		</linearGradient>
		<path class="st5" d="M23,38h13c0.6,0,1-0.4,1-1s-0.4-1-1-1H23c-0.6,0-1,0.4-1,1S22.4,38,23,38z"/>
		
			<linearGradient id="SVGID_7_" gradientUnits="userSpaceOnUse" x1="38" y1="29" x2="42" y2="29" gradientTransform="matrix(1 0 0 -1 0 66)">
			<stop  offset="0%" style="stop-color:#0E4B8D"/>
			<stop  offset="50%" style="stop-color:#4B80A2"/>
			<stop  offset="100%" style="stop-color:#8DBAB9"/>
		</linearGradient>
		<path class="st6" d="M41,36h-2c-0.6,0-1,0.4-1,1s0.4,1,1,1h2c0.6,0,1-0.4,1-1S41.6,36,41,36z"/>
		
			<linearGradient id="SVGID_8_" gradientUnits="userSpaceOnUse" x1="38" y1="41" x2="42" y2="41" gradientTransform="matrix(1 0 0 -1 0 66)">
			<stop  offset="0%" style="stop-color:#0E4B8D"/>
			<stop  offset="50%" style="stop-color:#4B80A2"/>
			<stop  offset="100%" style="stop-color:#8DBAB9"/>
		</linearGradient>
		<path class="st7" d="M41,24h-2c-0.6,0-1,0.4-1,1s0.4,1,1,1h2c0.6,0,1-0.4,1-1S41.6,24,41,24z"/>
		
			<linearGradient id="SVGID_9_" gradientUnits="userSpaceOnUse" x1="38" y1="37" x2="42" y2="37" gradientTransform="matrix(1 0 0 -1 0 66)">
			<stop  offset="0%" style="stop-color:#0E4B8D"/>
			<stop  offset="50%" style="stop-color:#4B80A2"/>
			<stop  offset="100%" style="stop-color:#8DBAB9"/>
		</linearGradient>
		<path class="st8" d="M41,28h-2c-0.6,0-1,0.4-1,1s0.4,1,1,1h2c0.6,0,1-0.4,1-1S41.6,28,41,28z"/>
		
			<linearGradient id="SVGID_10_" gradientUnits="userSpaceOnUse" x1="11.0102" y1="63.1788" x2="60.7805" y2="1.1045" gradientTransform="matrix(1 0 0 -1 0 66)">
			<stop  offset="0%" style="stop-color:#0E4B8D"/>
			<stop  offset="50%" style="stop-color:#4B80A2"/>
			<stop  offset="100%" style="stop-color:#8DBAB9"/>
		</linearGradient>
		<path class="st9" d="M56,6h-8c-0.6,0-1,0.4-1,1s0.4,1,1,1h8c1.7,0,3,1.3,3,3v33H5V11c0-1.7,1.3-3,3-3h8c0.6,0,1-0.4,1-1
			s-0.4-1-1-1h-2V4c0-1.1,0.9-2,2-2s2,0.9,2,2v36H9V12h7c0.6,0,1-0.4,1-1s-0.4-1-1-1H8c-0.6,0-1,0.4-1,1v30c0,0.6,0.4,1,1,1h48
			c0.6,0,1-0.4,1-1V11c0-0.6-0.4-1-1-1h-8c-0.6,0-1,0.4-1,1s0.4,1,1,1h7v28h-9V4c0-2.2-1.8-4-4-4H16c-2.2,0-4,1.8-4,4v2H8
			c-2.8,0-5,2.2-5,5v36c0,2.8,2.2,5,5,5h15v5h-5c-0.4,0-0.8,0.2-0.9,0.6l-2,5c-0.2,0.5,0,1.1,0.6,1.3c0.1,0,0.2,0.1,0.4,0.1h32
			c0.6,0,1-0.4,1-1c0-0.1,0-0.3-0.1-0.4l-2-5c-0.2-0.4-0.6-0.6-1-0.6h-5v-5h15c2.8,0,5-2.2,5-5V11C61,8.2,58.8,6,56,6z M42,2
			c1.1,0,2,0.9,2,2v36H20V4c0-0.7-0.2-1.4-0.5-2H42z M46.5,62h-29l1.2-3h26.6L46.5,62z M39,57H25v-5h14V57z M59,47c0,1.7-1.3,3-3,3
			H8c-1.7,0-3-1.3-3-3v-1h54V47z"/>
		
			<linearGradient id="SVGID_11_" gradientUnits="userSpaceOnUse" x1="29" y1="18" x2="35" y2="18" gradientTransform="matrix(1 0 0 -1 0 66)">
			<stop  offset="0%" style="stop-color:#0E4B8D"/>
			<stop  offset="50%" style="stop-color:#4B80A2"/>
			<stop  offset="100%" style="stop-color:#8DBAB9"/>
		</linearGradient>
		<path class="st10" d="M30,49h4c0.6,0,1-0.4,1-1s-0.4-1-1-1h-4c-0.6,0-1,0.4-1,1S29.4,49,30,49z"/>
		
			<linearGradient id="SVGID_12_" gradientUnits="userSpaceOnUse" x1="32" y1="48" x2="32" y2="48" gradientTransform="matrix(1 0 0 -1 0 66)">
			<stop  offset="0%" style="stop-color:#0E4B8D"/>
			<stop  offset="50%" style="stop-color:#4B80A2"/>
			<stop  offset="100%" style="stop-color:#8DBAB9"/>
		</linearGradient>
		<path class="st11" d="M32,18"/>
	</g>
	<g id="Group_147">
		
			<linearGradient id="Path_87_1_" gradientUnits="userSpaceOnUse" x1="29.0593" y1="55.1793" x2="36.3108" y2="55.1793" gradientTransform="matrix(1 0 0 -1 0 66)">
			<stop  offset="0%" style="stop-color:#0E4B8D"/>
			<stop  offset="50%" style="stop-color:#4B80A2"/>
			<stop  offset="100%" style="stop-color:#8DBAB9"/>
		</linearGradient>
		<path id="Path_87" class="st12" d="M34.8,10.7c0.4-0.1,0.7-0.4,0.9-0.7C36,9.6,36,9.2,36,8.8c0-0.7-0.2-1.3-0.7-1.8
			s-1.2-0.7-1.9-0.6H33V5.7c0-0.1,0-0.3-0.1-0.4c-0.1-0.1-0.2-0.1-0.4-0.1h-0.6c-0.1,0-0.1,0-0.1,0c-0.2,0-0.4,0.2-0.4,0.4v0.7h-1.9
			c-0.1,0-0.3,0-0.4,0.1C29,6.6,29,6.7,29,6.9v7.9c0,0.1,0,0.2,0.1,0.4c0.1,0.1,0.2,0.1,0.4,0.1h1.8V16c0,0.1,0,0.2,0.1,0.4
			c0.1,0.1,0.2,0.1,0.4,0.1h0.4c0.1,0,0.3,0,0.4-0.1c0.1-0.1,0.1-0.2,0.1-0.4v-0.7h0.6c0.7,0.1,1.5-0.2,2-0.7
			c0.5-0.4,0.7-1.2,0.7-1.9C36.4,11.8,35.8,10.9,34.8,10.7z M30.7,7.7H33c0.4,0,0.7,0.1,1,0.3c0.4,0.5,0.4,1.3,0,1.8
			c-0.3,0.2-0.6,0.4-1,0.3h-2.3V7.7z M34.7,12.9c-0.1,0.7-0.7,1.2-1.3,1h-2.5v-2.7h2.4c0.4,0,0.8,0.1,1.1,0.4c0.3,0.2,0.4,0.6,0.4,1
			C34.7,12.7,34.7,12.8,34.7,12.9z"/>
	</g>
</g>
</svg>
