<?xml version="1.0" encoding="utf-8"?>
<!-- Generator: Adobe Illustrator 25.1.0, SVG Export Plug-In . SVG Version: 6.00 Build 0)  -->
<svg version="1.1" id="Layer_1" xmlns="http://www.w3.org/2000/svg" xmlns:xlink="http://www.w3.org/1999/xlink" x="0px" y="0px"
	 viewBox="0 0 2041.3 2365.8" style="enable-background:new 0 0 2041.3 2365.8;" xml:space="preserve">
<style type="text/css">
	.st0{fill:#0E4B8D;}
</style>
<g>
	<g>
		<path class="st0" d="M716.1,1691c-13-14.7-32-24-53.1-24H335c-21.1,0-40.1,9.3-53.1,24c-11,12.5-17.7,28.9-17.7,46.8
			c0,39.1,31.8,70.8,70.8,70.8h328c18.9,0,36.7-7.4,50.1-20.8s20.8-31.2,20.7-50.1C733.8,1719.9,727.2,1703.5,716.1,1691z
			 M679.2,1754c-4.3,4.3-10.1,6.7-16.2,6.7H335c-12.6,0-22.8-10.2-22.8-22.8s10.2-22.8,22.8-22.8h328c12.6,0,22.8,10.2,22.8,22.8
			C685.8,1744,683.5,1749.7,679.2,1754z"/>
		<path class="st0" d="M716.1,1597.4c-13-14.7-32-24-53.1-24H335c-21.1,0-40.1,9.3-53.1,24c-11,12.5-17.7,28.9-17.7,46.8
			c0,17.9,6.7,34.3,17.7,46.8c13,14.7,32,24,53.1,24h328c18.9,0,36.7-7.4,50.1-20.8c1-1.1,2.1-2.1,3-3.2
			c11.5-12.9,17.7-29.4,17.7-46.9C733.8,1626.3,727.2,1609.9,716.1,1597.4z M312.1,1644.2c0-12.6,10.2-22.8,22.8-22.8h328
			c12.6,0,22.8,10.2,22.8,22.8c0,6.1-2.4,11.8-6.7,16.1c-4.3,4.3-10.1,6.7-16.2,6.7H335C322.4,1667,312.1,1656.8,312.1,1644.2z"/>
		<path class="st0" d="M716.1,1503.7c-13-14.7-32-24-53.1-24H335c-21.1,0-40.1,9.3-53.1,24c-11,12.5-17.7,28.9-17.7,46.8
			c0,17.9,6.7,34.3,17.7,46.8c13,14.7,32,24,53.1,24h328c18.9,0,36.7-7.4,50.1-20.7c1-1.1,2.1-2.1,3-3.2
			c11.5-13,17.7-29.4,17.7-46.9C733.8,1532.6,727.2,1516.2,716.1,1503.7z M663,1527.7c12.6,0,22.8,10.2,22.8,22.8
			c0,6.1-2.4,11.8-6.7,16.1c-4.3,4.3-10.1,6.7-16.2,6.7H335c-12.6,0-22.8-10.2-22.8-22.8c0-12.6,10.2-22.8,22.8-22.8H663z"/>
		<path class="st0" d="M663,1386H335c-39.1,0-70.8,31.8-70.8,70.8c0,17.9,6.7,34.3,17.7,46.8c13,14.7,32,24,53.1,24h328
			c18.9,0,36.7-7.4,50.1-20.8c1-1,2.1-2.1,3-3.2c11.5-12.9,17.7-29.4,17.7-46.9C733.8,1417.8,702.1,1386,663,1386z M335,1479.7
			c-12.6,0-22.8-10.2-22.8-22.8s10.2-22.8,22.8-22.8h328c12.6,0,22.8,10.2,22.8,22.8c0,6.1-2.4,11.8-6.7,16.1
			c-4.3,4.3-10.1,6.7-16.2,6.7H335z"/>
		<path class="st0" d="M1249.3,1691c-13-14.7-32-24-53.1-24h-328c-21.1,0-40.1,9.3-53.1,24c-11,12.5-17.7,28.9-17.7,46.8
			c0,39.1,31.8,70.8,70.8,70.8h328c39.1,0,70.8-31.8,70.8-70.8C1267,1719.9,1260.3,1703.5,1249.3,1691z M1196.2,1760.7h-328
			c-12.6,0-22.8-10.2-22.8-22.8s10.2-22.8,22.8-22.8h328c12.6,0,22.8,10.2,22.8,22.8S1208.8,1760.7,1196.2,1760.7z"/>
		<path class="st0" d="M1249.3,1597.3c-13-14.7-32-24-53.1-24h-328c-21.1,0-40.1,9.3-53.1,24c-11,12.5-17.7,28.9-17.7,46.8
			c0,17.9,6.7,34.3,17.7,46.8c13,14.7,32,24,53.1,24h328c21.1,0,40.1-9.3,53.1-24c11-12.5,17.7-28.9,17.7-46.8
			C1267,1626.2,1260.3,1609.8,1249.3,1597.3z M1196.2,1667h-328c-12.6,0-22.8-10.2-22.8-22.8c0-12.6,10.2-22.8,22.8-22.8h328
			c12.6,0,22.8,10.2,22.8,22.8C1219,1656.8,1208.8,1667,1196.2,1667z"/>
		<path class="st0" d="M1249.3,1503.7c-13-14.7-32-24-53.1-24h-328c-21.1,0-40.1,9.3-53.1,24c-11,12.5-17.7,28.9-17.7,46.8
			c0,17.9,6.7,34.3,17.7,46.8c13,14.7,32,24,53.1,24h328c21.1,0,40.1-9.3,53.1-24c11-12.5,17.7-28.9,17.7-46.8
			C1267,1532.6,1260.3,1516.2,1249.3,1503.7z M1196.2,1527.7c12.6,0,22.8,10.2,22.8,22.8c0,12.6-10.2,22.8-22.8,22.8h-328
			c-12.6,0-22.8-10.2-22.8-22.8c0-12.6,10.2-22.8,22.8-22.8H1196.2z"/>
		<path class="st0" d="M1249.3,1410c-13-14.7-32-24-53.1-24h-328c-21.1,0-40.1,9.3-53.1,24c-11,12.5-17.7,28.9-17.7,46.8
			c0,17.9,6.7,34.3,17.7,46.8c13,14.7,32,24,53.1,24h328c21.1,0,40.1-9.3,53.1-24c11-12.5,17.7-28.9,17.7-46.8
			C1267,1438.9,1260.3,1422.5,1249.3,1410z M868.1,1479.7c-12.6,0-22.8-10.2-22.8-22.8s10.2-22.8,22.8-22.8h328
			c12.6,0,22.8,10.2,22.8,22.8s-10.2,22.8-22.8,22.8H868.1z"/>
		<path class="st0" d="M1196.2,1292.4h-328c-39.1,0-70.8,31.8-70.8,70.8c0,17.9,6.7,34.3,17.7,46.8c13,14.7,32,24,53.1,24h328
			c21.1,0,40.1-9.3,53.1-24c11-12.5,17.7-28.9,17.7-46.8C1267,1324.1,1235.2,1292.4,1196.2,1292.4z M868.1,1340.4h328
			c12.6,0,22.8,10.2,22.8,22.8c0,12.6-10.2,22.8-22.8,22.8h-328c-12.6,0-22.8-10.2-22.8-22.8
			C845.3,1350.6,855.5,1340.4,868.1,1340.4z"/>
		<path class="st0" d="M1782.4,1691c-13-14.7-32-24-53.1-24h-328c-21.1,0-40.1,9.3-53.1,24c-11,12.5-17.7,28.9-17.7,46.8
			c0,39.1,31.8,70.8,70.8,70.8h328c39.1,0,70.8-31.8,70.8-70.8C1800.1,1719.9,1793.4,1703.5,1782.4,1691z M1729.3,1760.7h-328
			c-12.6,0-22.8-10.2-22.8-22.8s10.2-22.8,22.8-22.8h328c12.6,0,22.8,10.2,22.8,22.8S1741.9,1760.7,1729.3,1760.7z"/>
		<path class="st0" d="M1782.4,1597.4c-13-14.7-32-24-53.1-24h-328c-21.1,0-40.1,9.3-53.1,24c-11,12.5-17.7,28.9-17.7,46.8
			c0,17.9,6.7,34.3,17.7,46.8c13,14.7,32,24,53.1,24h328c21.1,0,40.1-9.3,53.1-24c11-12.5,17.7-28.9,17.7-46.8
			C1800.1,1626.2,1793.4,1609.9,1782.4,1597.4z M1378.4,1644.2c0-12.6,10.2-22.8,22.8-22.8h328c12.6,0,22.8,10.2,22.8,22.8
			c0,12.6-10.2,22.8-22.8,22.8h-328C1388.7,1667,1378.4,1656.8,1378.4,1644.2z"/>
		<path class="st0" d="M1782.4,1503.7c-13-14.7-32-24-53.1-24h-328c-21.1,0-40.1,9.3-53.1,24c-11,12.5-17.7,28.9-17.7,46.8
			c0,17.9,6.7,34.3,17.7,46.8c13,14.7,32,24,53.1,24h328c21.1,0,40.1-9.3,53.1-24c11-12.5,17.7-28.9,17.7-46.8
			C1800.1,1532.6,1793.4,1516.2,1782.4,1503.7z M1729.3,1527.7c12.6,0,22.8,10.2,22.8,22.8c0,12.6-10.2,22.8-22.8,22.8h-328
			c-12.6,0-22.8-10.2-22.8-22.8c0-12.6,10.2-22.8,22.8-22.8H1729.3z"/>
		<path class="st0" d="M1782.4,1410c-13-14.7-32-24-53.1-24h-328c-21.1,0-40.1,9.3-53.1,24c-11,12.5-17.7,28.9-17.7,46.8
			c0,17.9,6.7,34.3,17.7,46.8c13,14.7,32,24,53.1,24h328c21.1,0,40.1-9.3,53.1-24c11-12.5,17.7-28.9,17.7-46.8
			C1800.1,1438.9,1793.4,1422.5,1782.4,1410z M1401.3,1479.7c-12.6,0-22.8-10.2-22.8-22.8s10.2-22.8,22.8-22.8h328
			c12.6,0,22.8,10.2,22.8,22.8s-10.2,22.8-22.8,22.8H1401.3z"/>
		<path class="st0" d="M1782.4,1316.4c-13-14.7-32-24-53.1-24h-328c-21.1,0-40.1,9.3-53.1,24c-11,12.5-17.7,28.9-17.7,46.8
			c0,17.9,6.7,34.3,17.7,46.8c13,14.7,32,24,53.1,24h328c21.1,0,40.1-9.3,53.1-24c11-12.5,17.7-28.9,17.7-46.8
			C1800.1,1345.2,1793.4,1328.9,1782.4,1316.4z M1729.3,1340.4c12.6,0,22.8,10.2,22.8,22.8c0,12.6-10.2,22.8-22.8,22.8h-328
			c-12.6,0-22.8-10.2-22.8-22.8c0-12.6,10.2-22.8,22.8-22.8H1729.3z"/>
		<path class="st0" d="M1729.3,1198.7h-328c-39.1,0-70.8,31.8-70.8,70.8c0,17.9,6.7,34.3,17.7,46.8c13,14.7,32,24,53.1,24h328
			c21.1,0,40.1-9.3,53.1-24c11-12.5,17.7-28.9,17.7-46.8C1800.1,1230.5,1768.4,1198.7,1729.3,1198.7z M1401.3,1292.4
			c-12.6,0-22.8-10.2-22.8-22.8c0-12.6,10.2-22.8,22.8-22.8h328c12.6,0,22.8,10.2,22.8,22.8c0,12.6-10.2,22.8-22.8,22.8H1401.3z"/>
	</g>
	<g>
		<path class="st0" d="M723.9,1158.2c-6.8,0-13.6-2.9-18.4-8.5c-8.5-10.1-7.2-25.3,2.9-33.8l270.2-227.7c10.1-8.5,25.3-7.2,33.8,2.9
			c8.5,10.1,7.2,25.3-2.9,33.8l-270.2,227.7C734.9,1156.4,729.4,1158.2,723.9,1158.2z"/>
		<path class="st0" d="M1413.6,1008.1c-6.5,0-12.9-2.6-17.6-7.7c-9-9.7-8.4-24.9,1.3-33.9l275.8-254.8c9.7-9,24.9-8.4,33.9,1.3
			c9,9.7,8.4,24.9-1.3,33.9l-275.8,254.8C1425.3,1006,1419.4,1008.1,1413.6,1008.1z"/>
		<path class="st0" d="M1338.3,1013.3c-2.4,0-4.9-0.4-7.3-1.2l-266.1-85.2c-12.6-4-19.6-17.6-15.5-30.2c4-12.6,17.6-19.6,30.2-15.5
			l266.1,85.2c12.6,4,19.6,17.6,15.5,30.2C1357.9,1006.8,1348.5,1013.3,1338.3,1013.3z"/>
		<path class="st0" d="M638.6,1172.5c-3.2,0-6.4-0.6-9.6-2l-251.7-109.5c-12.2-5.3-17.7-19.4-12.4-31.6
			c5.3-12.2,19.4-17.7,31.6-12.4l251.7,109.5c12.2,5.3,17.7,19.4,12.4,31.6C656.7,1167.1,647.9,1172.5,638.6,1172.5z"/>
		<path class="st0" d="M339.7,942.8c-41.7,0-75.5,33.9-75.5,75.6c0,41.7,33.9,75.6,75.5,75.6c22.2,0,42.2-9.7,56.1-25
			c10.7-11.9,17.7-27.2,19.2-44c0.2-2.2,0.3-4.4,0.3-6.6C415.2,976.7,381.4,942.8,339.7,942.8z M339.7,1045.9
			c-15.2,0-27.5-12.4-27.5-27.6s12.4-27.6,27.5-27.6s27.5,12.4,27.5,27.6c0,3.7-0.7,7.3-2.1,10.5c0,0,0,0.1,0,0.1
			c-0.1,0.2-0.1,0.3-0.2,0.4c0,0,0,0.1-0.1,0.1c0,0,0,0,0,0C360.6,1039.2,350.9,1045.9,339.7,1045.9z"/>
		<path class="st0" d="M755.3,1139.2c-6.5-15.1-17.9-27.7-32-35.8c-11-6.3-23.8-9.9-37.3-9.9c-22.2,0-42.2,9.7-56.1,25
			c-10.7,11.9-17.7,27.1-19.2,44c-0.2,2.2-0.3,4.4-0.3,6.6c0,41.7,33.9,75.6,75.6,75.6c41.7,0,75.5-33.9,75.5-75.6
			C761.5,1158.4,759.3,1148.3,755.3,1139.2z M685.9,1196.6c-15.2,0-27.6-12.4-27.6-27.6c0-3.7,0.7-7.3,2.1-10.5c0,0,0-0.1,0-0.1
			c0.1-0.2,0.1-0.3,0.2-0.4c0,0,0-0.1,0-0.1c0,0,0,0,0,0c4.3-9.6,14-16.3,25.2-16.3c15.2,0,27.5,12.4,27.5,27.5
			C713.5,1184.2,701.1,1196.6,685.9,1196.6z"/>
		<path class="st0" d="M1032.1,796.1c-41.7,0-75.5,33.9-75.5,75.6c0,10.6,2.2,20.7,6.2,29.9c6.5,15.1,17.8,27.7,32,35.8
			c11,6.3,23.8,9.9,37.3,9.9c17.4,0,33.5-6,46.3-15.9c13.2-10.3,23-24.9,27.1-41.7c1.4-5.7,2.1-11.7,2.1-17.9
			C1107.7,830,1073.8,796.1,1032.1,796.1z M1004.6,871.7c0-15.2,12.4-27.6,27.5-27.6s27.6,12.4,27.6,27.6c0,6.6-2.3,12.7-6.2,17.4
			c0,0-0.1,0.1-0.1,0.1c-5.1,6.1-12.7,10-21.2,10C1017,899.2,1004.6,886.9,1004.6,871.7z"/>
		<path class="st0" d="M1445.6,987.2c-7.5-14.6-19.6-26.4-34.4-33.6c-9.9-4.8-21-7.5-32.8-7.5c-17.4,0-33.5,5.9-46.3,15.9
			c-13.2,10.3-23,24.9-27.1,41.7c-1.4,5.7-2.1,11.7-2.1,17.9c0,41.7,33.9,75.6,75.6,75.6c41.7,0,75.6-33.9,75.6-75.6
			C1453.9,1009.3,1450.9,997.6,1445.6,987.2z M1378.4,1049.3c-15.2,0-27.6-12.4-27.6-27.6s12.4-27.5,27.6-27.5s27.6,12.4,27.6,27.5
			S1393.6,1049.3,1378.4,1049.3z"/>
		<path class="st0" d="M1724.6,616.1c-41.7,0-75.5,33.9-75.5,75.6c0,12.4,3,24.2,8.3,34.5c7.5,14.6,19.6,26.4,34.4,33.6
			c9.9,4.8,21,7.5,32.8,7.5c41.7,0,75.6-33.9,75.6-75.6C1800.1,650,1766.3,616.1,1724.6,616.1z M1724.6,719.2
			c-15.2,0-27.5-12.4-27.5-27.6s12.4-27.6,27.5-27.6c15.2,0,27.6,12.4,27.6,27.6S1739.8,719.2,1724.6,719.2z"/>
	</g>
</g>
<path class="st0" d="M2020.8,398.2l-374-377.5v0c-10.3-10.4-24.2-16.2-38.8-16.2h-16.2H21.4C12,4.5,4.5,12,4.5,21.4v2323.1
	c0,9.3,7.5,16.9,16.9,16.9h1998.6c9.3,0,16.9-7.5,16.9-16.9V453.2v-16.3c0-14.4-5.7-28.2-15.8-38.4L2020.8,398.2z M1675.6,127.9
	l239.3,241.6c10.5,10.6,3,28.7-12,28.7h-239.3c-9.3,0-16.9-7.5-16.9-16.9V139.8C1646.7,124.7,1665,117.2,1675.6,127.9z
	 M1964.9,2306.4H76.4c-9.3,0-16.9-7.5-16.9-16.9V76.4c0-9.3,7.5-16.9,16.9-16.9h1498.5c9.3,0,16.9,7.5,16.9,16.9v360
	c0,9.3,7.5,16.9,16.9,16.9h356.4c9.3,0,16.9,7.5,16.9,16.9v1819.4C1981.8,2298.8,1974.3,2306.4,1964.9,2306.4z"/>
</svg>
