<?xml version="1.0" encoding="utf-8"?>
<!-- Generator: Adobe Illustrator 25.2.0, SVG Export Plug-In . SVG Version: 6.00 Build 0)  -->
<svg version="1.1" id="Layer_1" xmlns="http://www.w3.org/2000/svg" xmlns:xlink="http://www.w3.org/1999/xlink" x="0px" y="0px"
	 viewBox="-10 -30 670 650" style="enable-background:new 0 0 670 467.9;" xml:space="preserve">
<style type="text/css">
	.st0{fill:#FFFFFF;}
</style>
<path class="st0" d="M424.6,469.9H190.5c-31.2,0-56.5-25.3-56.5-56.5v-28.8c0-68.2,55.5-123.7,123.8-123.7H268l1.7,0.8
	c21,10.1,42.8,15.2,64.8,15.2c1.8,0,3.8-0.2,5.8-0.3c1.2-0.1,2.3-0.2,3.5-0.3l4.1-0.2l2.7,3c2.5,2.8,5,4.9,7.8,6.4l12.3,7.2
	l-0.2,5.1c-0.1,2.4-0.1,4.8,0,7.1l0.2,4.8l-4,2.6c-0.5,0.3-0.9,0.5-1.4,0.8c-25.1,12.5-23.9,30.4-21,39.9
	c7.5,24.4,20.7,47.3,38.3,66.3c5.9,6.3,14.1,9.9,22.7,9.9c8.7,0,14-3.2,20.8-7.2c0.8-0.5,1.6-0.9,2.4-1.4l4.3-2.5l5.4,3.2
	c1.8,1,3.6,2.1,5.3,3l4.6,2.4v14.4c0,0.8,0,1.6,0.1,2.4c0.6,6.8-1.6,13.7-6.2,18.7C437.6,467.1,431.3,469.9,424.6,469.9z
	 M257.8,277.9c-58.9,0-106.8,47.9-106.8,106.7v28.8c0,21.8,17.7,39.5,39.5,39.5h234.1c1.9,0,3.7-0.8,4.9-2.2c1.4-1.5,2-3.6,1.8-5.7
	c-0.1-1.3-0.2-2.7-0.2-4v-2.2c-6.7,3.8-14.6,7.4-25.8,7.4c-13.2,0-26-5.6-35.1-15.3c-19.3-20.9-33.9-46.1-42.1-72.9
	c-5.1-16.4-2-31.7,8.9-44.4c2.9-3.4,7.7-8,14.7-12.4l-1.8-1.1c-3.1-1.8-6-4-8.8-6.7c-2.1,0.2-4.2,0.3-6.5,0.3
	c-23.9,0-47.6-5.4-70.4-16h-6.4V277.9z M510.5,460.4c-11.8,0-23.5-1.3-35-3.9c-7.1-1.5-12.3-8-12.3-15.4v-24
	c-10.5-4.3-20.3-9.9-29.2-16.9l-20.7,12c-6.5,3.7-14.5,2.4-19.5-3c-16-17.4-28.2-38.4-35.1-60.6c-2.2-7.2,0.8-14.8,7.2-18.4
	l20.7-11.9c-1.5-11.2-1.5-22.5,0-33.7l-20.7-12c-6.4-3.7-9.3-11.3-7.2-18.3c7-22.5,19.1-43.4,35.1-60.7c5-5.4,13.2-6.7,19.5-3
	l20.7,11.9c8.9-6.9,18.7-12.6,29.2-16.9v-24c0-7.4,5.2-13.8,12.4-15.4c22.8-5.1,46.9-5.1,69.9,0c7.1,1.5,12.3,8,12.3,15.4v24
	c10.5,4.3,20.3,9.9,29.2,16.9l20.7-12c6.5-3.7,14.5-2.4,19.5,3c16,17.3,28.1,38.2,35.1,60.6c2.2,7.2-0.8,14.8-7.2,18.4l-20.7,11.9
	c1.5,11.2,1.5,22.5,0,33.7l20.7,12c6.4,3.7,9.3,11.3,7.2,18.3c-7,22.5-19.1,43.4-35.1,60.7c-5,5.4-13.2,6.7-19.5,3L587,400.2
	c-8.9,6.9-18.7,12.6-29.2,16.9v24c0,7.4-5.2,13.8-12.4,15.4C534,459.1,522.2,460.4,510.5,460.4z M480.1,440.1
	c20,4.3,40.9,4.3,60.6,0v-34.8l5.7-2c12.6-4.5,24.1-11.1,34.2-19.8l4.6-3.9l30.1,17.4c13.8-15.1,24.3-33.2,30.4-52.6L615.6,327
	l1.1-5.9c2.4-13.1,2.4-26.4,0-39.5l-1.1-5.9l30.1-17.4c-6.1-19.3-16.6-37.5-30.4-52.6l-30.1,17.4l-4.6-3.9
	c-10.1-8.6-21.6-15.3-34.2-19.8l-5.7-2v-34.8c-20-4.3-40.9-4.3-60.6,0v34.8l-5.7,2c-12.6,4.5-24.1,11.1-34.2,19.8l-4.6,3.9
	l-30.1-17.4c-13.8,15.1-24.3,33.2-30.4,52.6l30.2,17.4l-1.1,5.9c-2.4,13.1-2.4,26.4,0,39.5l1.1,5.9l-30.2,17.4
	c6.1,19.2,16.6,37.3,30.4,52.6l30.1-17.4l4.6,3.9c10.1,8.6,21.6,15.3,34.2,19.8l5.7,2V440.1z M479.1,439.9L479.1,439.9L479.1,439.9z
	 M616.1,397.5L616.1,397.5L616.1,397.5z M374.3,345L374.3,345L374.3,345z M646.5,257.8L646.5,257.8L646.5,257.8z M404.6,205.3
	C404.7,205.3,404.7,205.3,404.6,205.3L404.6,205.3z M541.7,162.9L541.7,162.9L541.7,162.9z M119.8,373.9H46.5
	C24.2,373.9,6,355.7,6,333.4v-32c0-40,32.5-72.5,72.5-72.5h64c19.2,0,37.4,7.5,51.1,21.1l8.1,8l-10,5.5
	c-18.9,10.3-35.3,25.1-47.5,42.6c-12.4,17.9-20.5,38.8-23.4,60.5L119.8,373.9z M78.5,245.9c-30.6,0-55.5,24.9-55.5,55.5v32
	c0,13,10.5,23.5,23.5,23.5h58.6c4-21.7,12.6-42.5,25.1-60.5c11.3-16.3,25.9-30.4,42.6-41.4c-9-5.9-19.4-9-30.4-9H78.5V245.9z
	 M510.5,358.4c-31.4,0-57-25.6-57-57s25.6-57,57-57s57,25.6,57,57S541.9,358.4,510.5,358.4z M510.5,261.4c-22.1,0-40,17.9-40,40
	s17.9,40,40,40c22.1,0,40-17.9,40-40S532.6,261.4,510.5,261.4z M334.5,245.9c-66.4,0-120.5-54.1-120.5-120.5
	c0-32.2,12.5-62.5,35.2-85.2S302.2,5,334.4,5c66.4,0,120.5,54.1,120.5,120.5c0,17.6-4,35-12,51.7l-1.1,2.2l-2.1,1.3
	c-0.5,0.3-1,0.6-1.5,0.9c-0.3,0.2-0.6,0.3-0.9,0.5l-4.3,2.7l-12.3-7.2c-4.6-2.7-9.9-4.1-15.3-4.1c-8.6,0-16.9,3.6-22.7,9.9
	c-14.5,15.7-26.5,35.2-34.6,56.5l-2,5.2l-5.5,0.3c-0.4,0-1,0.1-1.7,0.2C337.7,245.7,336.2,245.9,334.5,245.9z M334.4,22
	c-27.7,0-53.6,10.7-73.2,30.2C241.7,71.8,231,97.7,231,125.4c0,56.9,46.2,103.3,103.1,103.5c8.8-21.4,21.2-41,36.1-57.1
	c9-9.7,21.8-15.3,35.1-15.3c8.5,0,16.8,2.2,23.9,6.5l1.1,0.6c5.1-12.4,7.6-25.2,7.6-38.1C437.9,68.4,391.5,22,334.4,22z
	 M110.5,213.9c-40,0-72.5-32.5-72.5-72.5s32.5-72.5,72.5-72.5s72.5,32.5,72.5,72.5S150.5,213.9,110.5,213.9z M110.5,85.9
	c-30.6,0-55.5,24.9-55.5,55.5s24.9,55.5,55.5,55.5S166,172,166,141.4S141.1,85.9,110.5,85.9z"/>
</svg>
